<?xml version="1.0" encoding="UTF-8"?>
<svg version="1.1" xmlns="http://www.w3.org/2000/svg" width="48" height="48">
<path d="M0 0 C0 10.56 0 21.12 0 32 C-3.114375 32.845625 -6.22875 33.69125 -9.4375 34.5625 C-10.39970459 34.83263916 -11.36190918 35.10277832 -12.35327148 35.38110352 C-18.27736252 36.92302334 -23.00137672 37.10667122 -29 36 C-30.13610718 35.81522095 -30.13610718 35.81522095 -31.29516602 35.62670898 C-33.55581925 35.25300965 -35.80864498 34.85022213 -38.0625 34.4375 C-40.681875 33.963125 -43.30125 33.48875 -46 33 C-46 22.11 -46 11.22 -46 0 C-29.98542664 -1.9038304 -16.05138446 -1.78348716 0 0 Z " fill="#9E7D74" transform="translate(47,7)"/>
<path d="M0 0 C1.32 0 2.64 0 4 0 C4 10.23 4 20.46 4 31 C0.74125 31.825 -2.5175 32.65 -5.875 33.5 C-6.90093262 33.76103516 -7.92686523 34.02207031 -8.98388672 34.29101562 C-9.79100098 34.49404297 -10.59811523 34.69707031 -11.4296875 34.90625 C-12.25710449 35.11572266 -13.08452148 35.32519531 -13.93701172 35.54101562 C-16 36 -16 36 -18 36 C-18 25.11 -18 14.22 -18 3 C-13.545 2.505 -13.545 2.505 -9 2 C-9 3.98 -9 5.96 -9 8 C-4.545 7.505 -4.545 7.505 0 7 C0 4.69 0 2.38 0 0 Z " fill="#8A6257" transform="translate(43,8)"/>
<path d="M0 0 C-1.32 0.33 -2.64 0.66 -4 1 C-4 3.31 -4 5.62 -4 8 C-8.455 8.495 -8.455 8.495 -13 9 C-13 7.02 -13 5.04 -13 3 C-13.62044189 2.9498877 -14.24088379 2.89977539 -14.88012695 2.84814453 C-17.6917373 2.61601495 -20.50204118 2.37066307 -23.3125 2.125 C-24.77719727 2.00705078 -24.77719727 2.00705078 -26.27148438 1.88671875 C-27.20927734 1.80292969 -28.14707031 1.71914062 -29.11328125 1.6328125 C-29.97735596 1.55949707 -30.84143066 1.48618164 -31.73168945 1.41064453 C-34 1 -34 1 -37 -1 C-24.69503605 -2.72747874 -12.27296147 -1.56201328 0 0 Z " fill="#D0BEB9" transform="translate(47,7)"/>
<path d="M0 0 C9.81996112 -0.34057669 19.29046527 0.71153094 29 2 C29 2.66 29 3.32 29 4 C19.21735243 3.52279768 9.66303343 2.70426788 0 1 C0 0.67 0 0.34 0 0 Z " fill="#B69C95" transform="translate(1,7)"/>
<path d="M0 0 C2.0625 0.4375 2.0625 0.4375 4 1 C3.67 2.98 3.34 4.96 3 7 C2.34 7 1.68 7 1 7 C1 5.35 1 3.7 1 2 C0.34 1.67 -0.32 1.34 -1 1 C-0.67 0.67 -0.34 0.34 0 0 Z " fill="#3D3C3C" transform="translate(5,29)"/>
</svg>
